PathFileType	4	(X/Y/Z)	C:\Github\BTS_project\Data\sports2d_results\test6 Exam_2026-03-06_143334_tvc4_Sports2D\test6 Exam_2026-03-06_143334_tvc4_Sports2D_m_person00.trc
DataRate	CameraRate	NumFrames	NumMarkers	Units	OrigDataRate	OrigDataStartFrame	OrigNumFrames
30.0	30.0	8	22	m	30.0	14	112
Frame#	Time	Hip			RHip			RKnee			RAnkle			RBigToe			RSmallToe			RHeel			LHip			LKnee			LAnkle			LBigToe			LSmallToe			LHeel			Neck			Head			Nose			RShoulder			RElbow			RWrist			LShoulder			LElbow			LWrist			
		X1	Y1	Z1	X2	Y2	Z2	X3	Y3	Z3	X4	Y4	Z4	X5	Y5	Z5	X6	Y6	Z6	X7	Y7	Z7	X8	Y8	Z8	X9	Y9	Z9	X10	Y10	Z10	X11	Y11	Z11	X12	Y12	Z12	X13	Y13	Z13	X14	Y14	Z14	X15	Y15	Z15	X16	Y16	Z16	X17	Y17	Z17	X18	Y18	Z18	X19	Y19	Z19	X20	Y20	Z20	X21	Y21	Z21	X22	Y22	Z22
122	4.085235920852359	1.326953726717697	1.4142392451803112	0.0301	1.1448768775831557	1.4112514301662795	0.0301	0.9895818089814318	0.8404901664357693	0.129	0.823740738477219	0.21693232256715253	0.023	0.8911855564939192	0.04376062706004318	0.2179	0.779049182906221	0.050820525296917	0.1804	0.7722934685991939	0.12215835119161834	-0.0119	1.4949726602741806	1.3471947690008916	0.0301	1.5003864314649573	0.7766438835580683	0.129	1.4280950736342215	0.18769407458483114	0.023	1.5944912821032693	0.038669363935734155	0.2179	1.6208193155671815	0.04705487396875757	0.1804	1.3457022554895357	0.07876273469053281	-0.0119	1.4732245386347071	2.333748856987924	0.0008	1.5301925532811018	2.756032122957932	0.0655	1.5919161753655917	2.5136561598651763	0.1076	1.1386060963934832	2.2441161039611974	-0.01275	0.9621520760977122	1.8675317134000406	0.0702	1.2728922872865815	1.8590930869606916	0.1076	1.730065018806969	2.1423725420279847	-0.01275	1.8993960059676498	1.7991779502305134	0.0702	1.754675982171984	1.798268012477988	0.1076
123	4.1187214611872145	1.3273308573279021	1.409394914112816	0.0301	1.1440004817266436	1.4053104084626602	0.0301	0.9903381420660609	0.8371721715962026	0.129	0.8246765482539818	0.2177314527807366	0.023	0.8920668847458596	0.0459360658114454	0.2179	0.7764543300482545	0.05256429447125464	0.1804	0.7711234336640341	0.12137197053653037	-0.0119	1.4945170700139705	1.3419573790555868	0.0301	1.4981009741100781	0.7724250691936811	0.129	1.4292752892363172	0.1873150947815656	0.023	1.5994332272978684	0.03726409251902091	0.2179	1.623727150179829	0.047185536520624065	0.1804	1.345329753320774	0.0807057646711776	-0.0119	1.4741842761090647	2.332054074499149	0.0008	1.5336430311699294	2.756280512912281	0.0655	1.5933504082415417	2.513441846903425	0.1076	1.1395817244958197	2.244000980412414	-0.01275	0.9590612715728166	1.8691731672422593	0.0702	1.2743115625576453	1.8592189399487866	0.1076	1.7315887974176851	2.139921653523712	-0.01275	1.8906354769749918	1.7819908856733597	0.0702	1.7573143427785325	1.8123629388067464	0.1076
124	4.15220700152207	1.326806253178046	1.4078674774077862	0.0301	1.1410320242229623	1.404503083080384	0.0301	0.9921372707891071	0.8280747252730237	0.129	0.8252011780996864	0.21819907771892297	0.023	0.8931222613819454	0.04773100308028244	0.2179	0.7747362376450789	0.052792285163484616	0.1804	0.7715531785847373	0.12297477778473989	-0.0119	1.4972609589613874	1.341699086122253	0.0301	1.495099918817145	0.7698902998941984	0.129	1.4322689069433938	0.18499661595141267	0.023	1.600662319305615	0.037533976046944736	0.2179	1.622643658395448	0.0469302863327022	0.1804	1.3478984910983043	0.07927352766902356	-0.0119	1.4748665260507143	2.3290752110501196	0.0008	1.535606380673402	2.7561848278027914	0.0655	1.5935636947455392	2.5123091448185777	0.1076	1.1412315938968376	2.244392840615686	-0.01275	0.9570923423959894	1.8695799330627716	0.0702	1.274997278195964	1.858878553894186	0.1076	1.7343389446066122	2.1414369026867406	-0.01275	1.876323136072353	1.7615803152123655	0.0702	1.7549713996329923	1.8195297076562658	0.1076
125	4.185692541856925	1.3260784360367277	1.4078190606693308	0.0301	1.1393224727601363	1.405975574136933	0.0301	0.9954226058906822	0.8183630705738875	0.129	0.8256297917776599	0.21719971946829225	0.023	0.8932623312974081	0.0479732454685904	0.2179	0.7740873065005042	0.052216580723120895	0.1804	0.7727483785633332	0.12623936095190086	-0.0119	1.4991429901079005	1.342360387513678	0.0301	1.492124817701538	0.7686268050051732	0.129	1.4324382658963	0.18260150609448245	0.023	1.5991023524256074	0.0396253338951831	0.2179	1.61960021074366	0.04663773961161439	0.1804	1.3486730207313784	0.07671989151252764	-0.0119	1.4741125968992992	2.3285760922349046	0.0008	1.5367705952279356	2.754987929150901	0.0655	1.5942854922949763	2.5117324180433487	0.1076	1.1423852986525693	2.2449057782507302	-0.01275	0.9575740569897333	1.8681615736949362	0.0702	1.275216865022603	1.8579949434039873	0.1076	1.7355672460944835	2.143928407490183	-0.01275	1.867043970315775	1.749515769690337	0.0702	1.75088845422163	1.8203657288031627	0.1076
126	4.219178082191781	1.3261887743475884	1.410133881875556	0.0301	1.1396573264085044	1.4061140500876075	0.0301	0.9946223560885296	0.8127562140019124	0.129	0.8245180019077623	0.2153666056362247	0.023	0.8929952050428746	0.047051369075280014	0.2179	0.7733626665260168	0.05208470339384037	0.1804	0.7738946810768449	0.12846892742155774	-0.0119	1.4989517304214963	1.342913444116582	0.0301	1.4907035714393062	0.7682797803905665	0.129	1.4305700615454884	0.18203086781005082	0.023	1.5950007850411927	0.042197745350954906	0.2179	1.6170222538118735	0.04590540906910705	0.1804	1.3484142475598542	0.07555349384936015	-0.0119	1.473333276942463	2.33172961132293	0.0008	1.537549384148864	2.75472246241511	0.0655	1.5942400783968391	2.5145655420816637	0.1076	1.1434129778735345	2.245130000268029	-0.01275	0.95893544507755	1.866040452625676	0.0702	1.2748736845567565	1.8571106501736971	0.1076	1.736007263969836	2.144597661980127	-0.01275	1.8630480534666252	1.745304933959738	0.0702	1.74409402754459	1.8198637331717615	0.1076
127	4.252663622526636	1.3266718418406764	1.4149682056159456	0.0301	1.1394623333681486	1.4051957010842777	0.0301	0.9871949795095165	0.8134123193285001	0.129	0.8215042604235632	0.2131998665454238	0.023	0.8931488703798338	0.0459298266242189	0.2179	0.772909430514983	0.05232218277108161	0.1804	0.7747753020510384	0.12870239828862284	-0.0119	1.497607877462886	1.3446127622629482	0.0301	1.4917723406781263	0.7684110579012591	0.129	1.4300781287608333	0.18270054523364287	0.023	1.5887365577284287	0.042953252935542745	0.2179	1.6157216080286725	0.043883154445875434	0.1804	1.3495675092025101	0.07663399615060738	-0.0119	1.473399831260968	2.3355407762159395	0.0008	1.5377732798011878	2.755849670461116	0.0655	1.5926299337775098	2.5194786683946915	0.1076	1.1446275079564274	2.2445338257756706	-0.01275	0.9587214827669143	1.8642742712549525	0.0702	1.2743581011677025	1.8567856400438278	0.1076	1.737130724109928	2.1438365803188932	-0.01275	1.8611555918195124	1.7444999676818918	0.0702	1.7372674300290047	1.8186677303082102	0.1076
128	4.286149162861491	1.3269163962663642	1.4183525228291516	0.0301	1.1358281549376812	1.4056009210003333	0.0301	0.9795062845173554	0.8171987388472877	0.129	0.8184180939020235	0.2103567730292744	0.023	0.8935864814103972	0.04499086975828611	0.2179	0.7735426110158017	0.05076187542923917	0.1804	0.7751048100085786	0.12730638570798086	-0.0119	1.4969834629047254	1.347075392468586	0.0301	1.4940896915953092	0.7684019849628362	0.129	1.4325484522750302	0.18289785441694212	0.023	1.582148610207396	0.041258186552165156	0.2179	1.615804834913539	0.041248237701940235	0.1804	1.3520259686338576	0.07916450927283007	-0.0119	1.4738740488731388	2.3378132421231705	0.0008	1.5373417631366073	2.755972682889203	0.0655	1.591007708414137	2.5216500916214337	0.1076	1.1454669629545133	2.243670951571389	-0.01275	0.9562158412338455	1.8622982815251494	0.0702	1.2748865805951837	1.857059892632687	0.1076	1.7382267605872344	2.1432521059794776	-0.01275	1.85983911596745	1.7443850744639915	0.0702	1.7346310500944568	1.8145294846673008	0.1076
129	4.319634703196347	1.327079127204461	1.4169609689805034	0.0301	1.1303409787254974	1.408031236298932	0.0301	0.9776488816598764	0.8198899128080633	0.129	0.8163586184801117	0.20781293728935266	0.023	0.8930706077338031	0.04411017684152005	0.2179	0.7741253988703457	0.046877912951440844	0.1804	0.7747771232982376	0.12447742958628275	-0.0119	1.4991811650980453	1.3494470309364828	0.0301	1.4955110839104868	0.7682804150900654	0.129	1.437179370811602	0.18249706507147614	0.023	1.577484658392062	0.039743931650048026	0.2179	1.6166114787413914	0.039325498832209156	0.1804	1.3548684028093774	0.08077333063925653	-0.0119	1.4739168006101566	2.3388690229390012	0.0008	1.537371279972751	2.7552438135429194	0.0655	1.5897848270300956	2.519170363027919	0.1076	1.1458754359716992	2.244199011785222	-0.01275	0.9534213432957116	1.8596172266979667	0.0702	1.2765914563442957	1.8573824773715322	0.1076	1.7388536239904786	2.142927445000723	-0.01275	1.8585656948674312	1.7404966534624395	0.0702	1.734588363528812	1.8082718435313703	0.1076
